<svg width="512" height="512" viewBox="0 0 512 512" fill="none" xmlns="http://www.w3.org/2000/svg">
  <defs>
    <linearGradient id="bg" x1="64" y1="64" x2="448" y2="448" gradientUnits="userSpaceOnUse">
      <stop stop-color="#2563EB"/>
      <stop offset="1" stop-color="#14B8A6"/>
    </linearGradient>
    <linearGradient id="face" x1="180" y1="150" x2="332" y2="302" gradientUnits="userSpaceOnUse">
      <stop stop-color="#E2E8F0"/>
      <stop offset="1" stop-color="#94A3B8"/>
    </linearGradient>
  </defs>
  <rect x="24" y="24" width="464" height="464" rx="64" fill="url(#bg)"/>
  <rect x="120" y="112" width="272" height="220" rx="44" fill="#0F172A" fill-opacity="0.8" stroke="#E2E8F0" stroke-opacity="0.35" stroke-width="8"/>
  <rect x="156" y="148" width="200" height="148" rx="30" fill="url(#face)"/>
  <circle cx="218" cy="222" r="14" fill="#0F172A"/>
  <circle cx="294" cy="222" r="14" fill="#0F172A"/>
  <path d="M212 266C223 279 236 286 256 286C276 286 289 279 300 266" stroke="#0F172A" stroke-width="10" stroke-linecap="round"/>
  <rect x="206" y="76" width="100" height="40" rx="20" fill="#E2E8F0" fill-opacity="0.9"/>
  <circle cx="256" cy="64" r="20" fill="#E2E8F0"/>
  <rect x="172" y="352" width="168" height="40" rx="20" fill="#E2E8F0" fill-opacity="0.9"/>
  <rect x="130" y="396" width="252" height="24" rx="12" fill="#E2E8F0" fill-opacity="0.7"/>
  <circle cx="420" cy="124" r="30" fill="#10B981"/>
  <path d="M409 124L418 133L433 116" stroke="white" stroke-width="7" stroke-linecap="round" stroke-linejoin="round"/>
</svg>
